# xmcd
#
# Track frame offsets: 
#        150
#        10845
#        27016
#        60930
#        86908
#        116049
#        144788
#        162197
#        190452
#        207529
#        221664
#        247579
#        262257
#        283767
#
# Disc length: 4051 seconds
#
# Revision: 1
# Processed by: cddbd v1.5.2PL0 Copyright (c) Steve Scherf et al.
# Submitted via: ExactAudioCopy v1.1
#
DISCID=c70fd10e
DTITLE=Otis Spann - The Complete Blue Horison Sessions [CD1]
DYEAR=2006
DGENRE=Blues
TTITLE0=Can't Do Me No Good
TTITLE1=Bloody Murder
TTITLE2=Someday Soon Baby
TTITLE3=Hungry Country Girl
TTITLE4=My Love Depends On You
TTITLE5=Walkin'
TTITLE6=It Was A Big Thing
TTITLE7=Temperature Is Rising
TTITLE8=Dig You
TTITLE9=No More Doggin'
TTITLE10=Ain't Nobody's Business
TTITLE11=She Needs Some Loving
TTITLE12=I Need Some Air
TTITLE13=Someday Baby
EXTD=YEAR: 2006
EXTT0=
EXTT1=
EXTT2=
EXTT3=
EXTT4=
EXTT5=
EXTT6=
EXTT7=
EXTT8=
EXTT9=
EXTT10=
EXTT11=
EXTT12=
EXTT13=
PLAYORDER=
